<svg width="512" height="512" viewBox="0 0 512 512" fill="none" xmlns="http://www.w3.org/2000/svg">
<g clip-path="url(#clip0_321_2941)">
<rect width="512" height="512" rx="110" fill="#767676"/>
<path d="M405.333 0H106.667C78.3873 0.0338743 51.2759 11.2828 31.2794 31.2794C11.2828 51.2759 0.0338743 78.3873 0 106.667L0 405.333C0.0338743 433.613 11.2828 460.724 31.2794 480.721C51.2759 500.717 78.3873 511.966 106.667 512V448C106.667 408.394 122.4 370.411 150.405 342.405C178.411 314.4 216.394 298.667 256 298.667C295.606 298.667 333.589 314.4 361.595 342.405C389.6 370.411 405.333 408.394 405.333 448V512C433.613 511.966 460.724 500.717 480.721 480.721C500.717 460.724 511.966 433.613 512 405.333V106.667C511.966 78.3873 500.717 51.2759 480.721 31.2794C460.724 11.2828 433.613 0.0338743 405.333 0V0ZM256 256C239.123 256 222.624 250.995 208.591 241.619C194.558 232.242 183.621 218.915 177.162 203.322C170.704 187.73 169.014 170.572 172.306 154.019C175.599 137.466 183.726 122.261 195.66 110.327C207.594 98.3928 222.799 90.2656 239.352 86.973C255.905 83.6804 273.063 85.3703 288.656 91.829C304.248 98.2876 317.576 109.225 326.952 123.258C336.329 137.291 341.333 153.789 341.333 170.667C341.333 193.298 332.343 215.003 316.34 231.006C300.337 247.01 278.632 256 256 256Z" fill="#545454"/>
<path d="M256 213.333C279.564 213.333 298.667 194.231 298.667 170.667C298.667 147.103 279.564 128 256 128C232.436 128 213.333 147.103 213.333 170.667C213.333 194.231 232.436 213.333 256 213.333Z" fill="#767676"/>
<path d="M256 341.333C227.721 341.367 200.609 352.616 180.613 372.613C160.616 392.609 149.367 419.721 149.333 448V512H362.667V448C362.633 419.721 351.384 392.609 331.387 372.613C311.391 352.616 284.279 341.367 256 341.333V341.333Z" fill="#767676"/>
</g>
<defs>
<clipPath id="clip0_321_2941">
<rect width="512" height="512" fill="white"/>
</clipPath>
</defs>
</svg>
