<svg width="511" height="511" viewBox="0 0 511 511" fill="none" xmlns="http://www.w3.org/2000/svg">
<g clip-path="url(#clip0_176_2005)">
<path d="M210.643 150.744H420.194V239.57H210.643V150.744Z" fill="#DDDDDD"/>
<path d="M119.836 405.289V18.0619C70.8575 -18.8269 0.0895626 16.1788 0.0895626 77.8863C0.0895626 463.301 -0.553712 439.597 1.59833 450.159C12.534 396.482 75.9803 372.28 119.836 405.289Z" fill="#DDDDDD"/>
<path d="M134.803 480.1C126.538 480.1 119.836 473.394 119.836 465.129C119.836 440.361 99.6919 420.217 74.9317 420.217C50.1716 420.217 30.0273 440.361 30.0273 465.129C30.0273 489.878 50.156 510.041 74.9317 510.041H465.099C473.368 510.041 480.065 503.336 480.065 495.071V480.1H134.803Z" fill="#DDDDDD"/>
<path d="M496.034 59.9214H149.77V450.158H496.034C504.299 450.158 511.001 443.453 511.001 435.188V74.8921C511.001 66.6231 504.299 59.9214 496.034 59.9214ZM435.165 390.276H195.672C187.407 390.276 180.705 383.57 180.705 375.305C180.705 367.036 187.407 360.334 195.672 360.334H435.161C443.43 360.334 450.132 367.036 450.132 375.305C450.132 383.57 443.43 390.276 435.165 390.276ZM435.165 329.395H195.672C187.407 329.395 180.705 322.689 180.705 314.424C180.705 306.155 187.407 299.453 195.672 299.453H435.161C443.43 299.453 450.132 306.155 450.132 314.424C450.132 322.689 443.43 329.395 435.165 329.395ZM450.132 254.541C450.132 262.806 443.43 269.512 435.165 269.512H195.672C187.407 269.512 180.705 262.806 180.705 254.541V135.773C180.705 127.504 187.407 120.802 195.672 120.802H435.161C443.43 120.802 450.132 127.504 450.132 135.773V254.541Z" fill="#DDDDDD"/>
</g>
<defs>
<clipPath id="clip0_176_2005">
<rect width="511" height="511" fill="white"/>
</clipPath>
</defs>
</svg>
