<svg width="512" height="512" viewBox="0 0 512 512" fill="none" xmlns="http://www.w3.org/2000/svg">
<path d="M405.333 106.667H384V64.0001C384 58.3421 381.752 52.9159 377.751 48.9151C373.751 44.9144 368.324 42.6667 362.667 42.6667C357.009 42.6667 351.582 44.9144 347.582 48.9151C343.581 52.9159 341.333 58.3421 341.333 64.0001V106.667H170.667V64.0001C170.667 58.3421 168.419 52.9159 164.418 48.9151C160.417 44.9144 154.991 42.6667 149.333 42.6667C143.675 42.6667 138.249 44.9144 134.248 48.9151C130.247 52.9159 128 58.3421 128 64.0001V106.667H106.667C89.6926 106.667 73.414 113.41 61.4117 125.412C49.4093 137.414 42.6665 153.693 42.6665 170.667V192H469.333V170.667C469.333 153.693 462.59 137.414 450.588 125.412C438.586 113.41 422.307 106.667 405.333 106.667Z" fill="#FF0050"/>
<path d="M42.6665 405.333C42.6665 422.307 49.4093 438.586 61.4117 450.588C73.414 462.591 89.6926 469.333 106.667 469.333H405.333C422.307 469.333 438.586 462.591 450.588 450.588C462.59 438.586 469.333 422.307 469.333 405.333V234.667H42.6665V405.333Z" fill="#FF0050"/>
</svg>
