<svg width="512" height="512" viewBox="0 0 512 512" fill="none" xmlns="http://www.w3.org/2000/svg">
<g clip-path="url(#clip0_176_1982)">
<path d="M354.462 39.3846H157.538C146.662 39.3846 137.846 30.5686 137.846 19.6923C137.846 8.816 146.662 0 157.538 0H354.462C365.338 0 374.154 8.816 374.154 19.6923C374.154 30.5686 365.338 39.3846 354.462 39.3846Z" fill="#FF0050"/>
<path d="M413.538 98.4615H98.4614C87.585 98.4615 78.769 89.6455 78.769 78.7692C78.769 67.8929 87.585 59.0769 98.4614 59.0769H413.538C424.415 59.0769 433.231 67.8929 433.231 78.7692C433.231 89.6455 424.415 98.4615 413.538 98.4615Z" fill="#FF0050"/>
<path d="M452.923 118.154H59.0769C26.4492 118.154 0 144.603 0 177.231V452.923C0 485.551 26.4492 512 59.0769 512H452.923C485.551 512 512 485.551 512 452.923V177.231C512 144.603 485.551 118.154 452.923 118.154ZM338.176 348.554L237.489 411.569C219.044 423.098 194.746 417.49 183.217 399.045C179.291 392.763 177.216 385.5 177.231 378.092V252.062C177.188 230.31 194.785 212.641 216.537 212.598C223.945 212.583 231.207 214.658 237.489 218.585L338.176 281.6C356.622 293.129 362.229 317.426 350.7 335.872C347.531 340.944 343.248 345.227 338.176 348.396V348.554Z" fill="#FF0050"/>
<path d="M216.615 378.132L317.302 315.077L216.615 252.14V378.132Z" fill="#FF0050"/>
</g>
<defs>
<clipPath id="clip0_176_1982">
<rect width="512" height="512" fill="white"/>
</clipPath>
</defs>
</svg>
