<svg width="416" height="416" viewBox="0 0 416 416" fill="none" xmlns="http://www.w3.org/2000/svg">
<g clip-path="url(#clip0_176_1987)">
<path d="M328.712 264.539C341.64 242.907 350.216 215.547 351.88 188.475C352.936 171.099 349.064 152.859 340.68 135.707C327.528 108.763 304.936 93.627 283.112 79.003C266.824 68.091 251.432 57.787 240.552 43.067L238.6 40.443C232.168 31.803 224.904 22.011 223.752 13.787C222.6 5.46697 215.048 -0.453029 206.792 0.0269706C198.408 0.602971 191.912 7.54697 191.912 15.963V301.083C178.504 292.955 161.992 287.963 143.912 287.963C99.8161 287.963 63.9121 316.667 63.9121 351.963C63.9121 387.259 99.8161 415.963 143.912 415.963C188.008 415.963 223.912 387.259 223.912 351.963V165.467C247.944 174.651 287.272 198.043 298.088 252.667C296.072 255.643 294.152 258.843 291.912 261.403C286.056 268.027 286.696 278.139 293.352 283.963C299.944 289.851 310.056 289.147 315.912 282.523C320.2 277.659 324.008 271.963 327.656 266.011C328.04 265.563 328.393 265.083 328.712 264.539Z" fill="#DDDDDD"/>
</g>
<defs>
<clipPath id="clip0_176_1987">
<rect width="416" height="416" fill="white"/>
</clipPath>
</defs>
</svg>
