<svg width="512" height="512" viewBox="0 0 512 512" fill="none" xmlns="http://www.w3.org/2000/svg">
<path d="M288 256C288 262.329 286.123 268.516 282.607 273.778C279.091 279.041 274.093 283.142 268.246 285.564C262.399 287.986 255.965 288.62 249.757 287.385C243.55 286.15 237.848 283.103 233.373 278.627C228.897 274.152 225.85 268.45 224.615 262.243C223.38 256.035 224.014 249.601 226.436 243.754C228.858 237.907 232.959 232.909 238.222 229.393C243.484 225.877 249.671 224 256 224C264.487 224 272.626 227.371 278.628 233.373C284.629 239.374 288 247.513 288 256ZM336 256C336 271.823 331.308 287.29 322.518 300.446C313.727 313.602 301.233 323.855 286.615 329.91C271.997 335.965 255.911 337.55 240.393 334.463C224.874 331.376 210.62 323.757 199.432 312.569C188.243 301.38 180.624 287.126 177.537 271.607C174.45 256.089 176.035 240.003 182.09 225.385C188.145 210.767 198.399 198.273 211.554 189.482C224.71 180.692 240.178 176 256 176C277.217 176 297.566 184.429 312.569 199.431C327.572 214.434 336 234.783 336 256ZM320 256C320 243.342 316.247 230.968 309.214 220.444C302.182 209.919 292.186 201.716 280.492 196.872C268.797 192.028 255.929 190.76 243.514 193.23C231.1 195.699 219.696 201.795 210.745 210.745C201.795 219.696 195.699 231.099 193.23 243.514C190.76 255.929 192.028 268.797 196.872 280.492C201.716 292.186 209.919 302.182 220.444 309.214C230.968 316.246 243.342 320 256 320C272.974 320 289.253 313.257 301.255 301.255C313.257 289.252 320 272.974 320 256ZM480 256C480 300.303 466.863 343.611 442.249 380.448C417.636 417.284 382.652 445.995 341.721 462.949C300.791 479.903 255.752 484.339 212.3 475.696C168.848 467.053 128.935 445.719 97.6082 414.392C66.2812 383.065 44.9473 343.152 36.3042 299.7C27.6611 256.248 32.0971 211.21 49.0511 170.279C66.0051 129.348 94.7158 94.3642 131.552 69.7508C168.389 45.1374 211.697 32 256 32C315.409 32 372.384 55.5999 414.392 97.6081C456.4 139.616 480 196.592 480 256ZM368 256C368 233.848 361.431 212.194 349.125 193.776C336.818 175.358 319.326 161.003 298.861 152.525C278.395 144.048 255.876 141.831 234.15 146.152C212.424 150.474 192.468 161.141 176.804 176.804C161.141 192.468 150.474 212.424 146.152 234.15C141.831 255.876 144.049 278.395 152.526 298.861C161.003 319.326 175.358 336.818 193.776 349.125C212.195 361.431 233.849 368 256 368C285.704 368 314.192 356.2 335.196 335.196C356.2 314.192 368 285.704 368 256V256Z" fill="#FF0050"/>
</svg>
